<svg width="6558" height="1451" viewBox="0 0 6558 1451" fill="none" xmlns="http://www.w3.org/2000/svg">
<path fill-rule="evenodd" clip-rule="evenodd" d="M2469.44 779.67C2458.29 779.67 2449.17 770.557 2449.17 759.419V699.678V639.937C2449.17 628.799 2458.29 619.686 2469.44 619.686H2604.24H2739.04C2750.19 619.686 2759.31 628.799 2759.31 639.937V699.678V759.419C2759.31 770.557 2750.19 779.67 2739.04 779.67H2604.24H2469.44ZM2053.9 1377.08C2053.9 1388.22 2063.02 1397.33 2074.17 1397.33H2470.46H2866.74C2877.89 1397.33 2887.01 1388.22 2887.01 1377.08V1317.34V1257.6C2887.01 1246.46 2877.89 1237.35 2866.74 1237.35H2549.51H2232.28C2221.13 1237.35 2212.01 1228.23 2212.01 1217.09V698.665V180.235C2212.01 169.097 2221.13 159.984 2232.28 159.984H2549.51H2866.74C2877.89 159.984 2887.01 150.871 2887.01 139.733V79.992V20.2512C2887.01 9.11302 2877.89 0 2866.74 0H2470.46H2074.17C2063.02 0 2053.9 9.11302 2053.9 20.2512V696.64V1377.08ZM1435.63 764.487C1435.63 775.625 1444.75 784.738 1455.9 784.738H1590.7H1725.5C1736.65 784.738 1745.77 775.625 1745.77 764.487V704.746V645.005C1745.77 633.867 1736.65 624.754 1725.5 624.754H1590.7H1455.9C1444.75 624.754 1435.63 633.867 1435.63 645.005V704.746V764.487ZM1060.63 1402.4C1049.48 1402.4 1040.36 1393.29 1040.36 1382.15V705.759V29.3697C1040.36 18.2315 1049.48 9.11849 1060.63 9.11849H1456.91H1853.2C1864.35 9.11849 1873.47 18.2315 1873.47 29.3697V85.0604V144.801C1873.47 155.939 1864.35 165.052 1853.2 165.052H1535.97H1218.74C1207.59 165.052 1198.47 174.165 1198.47 185.304V703.734V1222.16C1198.47 1233.3 1207.59 1242.41 1218.74 1242.41H1535.97H1853.2C1864.35 1242.41 1873.47 1251.53 1873.47 1262.67V1322.41V1382.15C1873.47 1393.29 1864.35 1402.4 1853.2 1402.4H1456.91H1060.63ZM816.383 1058.13C819.423 988.268 802.194 917.388 765.707 854.61C733.274 798.919 688.679 757.404 636.989 722.977C589.246 689.881 537.757 665.207 488.824 641.758C486.856 640.815 484.892 639.874 482.933 638.935L477.866 636.91L472.798 634.884C418.068 608.558 361.31 578.181 313.675 541.729C266.039 505.277 227.525 461.737 209.281 410.096C195.092 368.582 195.092 328.079 207.254 290.614C220.43 254.162 244.755 220.748 281.242 197.459C329.891 165.057 391.716 155.944 457.595 168.095C518.407 179.233 583.272 209.61 644.084 256.187C653.205 263.275 665.368 261.25 671.449 253.15L704.895 208.597L738.341 163.032C745.436 154.932 743.409 142.781 735.301 136.706C648.138 70.8892 553.88 30.3868 463.676 17.2236C368.405 4.06031 276.174 21.2738 200.16 71.9017C135.294 114.429 89.6855 175.183 66.3744 244.037C44.0768 312.891 44.0769 388.833 70.4285 462.749C98.8072 540.716 149.483 601.47 210.295 651.085C271.106 700.701 342.053 739.178 410.973 771.58L416.04 773.605L421.108 775.63C463.676 795.881 507.258 817.145 545.772 841.447C583.272 866.761 615.705 895.112 636.989 930.552C658.273 967.004 668.408 1008.52 667.395 1049.02C666.381 1089.52 654.219 1128 630.908 1159.39C617.732 1176.6 601.516 1191.79 582.259 1204.96C566.042 1215.08 549.826 1224.19 531.582 1231.28C524.488 1234.32 519.42 1241.41 519.42 1249.51V1315.32V1370C519.42 1382.15 531.582 1391.27 543.745 1388.23C582.259 1378.1 617.732 1362.91 650.165 1342.66C688.679 1318.36 723.139 1286.97 750.504 1250.52C791.045 1194.83 813.342 1128 816.383 1058.13ZM66.3744 1119.9C72.4555 1110.79 84.6179 1108.76 93.7396 1115.85C128.199 1142.18 161.646 1165.47 193.065 1182.68C226.511 1201.92 259.958 1217.11 292.39 1228.24C300.499 1231.28 305.566 1238.37 305.566 1246.47V1310.26V1363.93C305.566 1376.08 293.404 1385.19 281.242 1382.15C237.66 1370 194.079 1352.79 150.497 1330.51C103.875 1306.21 56.2392 1275.83 7.58995 1239.38C-0.518253 1233.31 -2.5453 1221.16 3.53585 1213.06L35.9686 1165.47L66.3744 1119.9ZM4024.2 130.625C4110.35 207.579 4163.05 314.91 4163.05 432.367C4163.05 523.497 4130.62 608.552 4076.9 679.431C4027.24 743.222 3957.31 793.85 3877.24 825.239C3865.07 830.302 3860.01 842.453 3866.09 852.578L4021.16 1115.84L4170.15 1368.98C4178.25 1382.15 4167.11 1398.35 4150.89 1398.35H4088.05H4001.9C3993.79 1398.35 3986.7 1394.3 3982.64 1388.22L3830.62 1130.02L3678.59 871.817C3674.53 865.742 3667.44 861.692 3659.33 861.692H3593.45H3536.69C3524.53 861.692 3514.4 852.578 3514.4 841.44V781.699V721.958C3514.4 710.82 3524.53 701.707 3536.69 701.707H3602.57H3690.75C3772.84 701.707 3847.85 671.331 3901.56 622.728C3955.28 574.125 3988.72 506.283 3988.72 432.367C3988.72 358.45 3955.28 290.609 3901.56 242.006C3847.85 193.403 3772.84 163.026 3690.75 163.026H3471.83H3274.19C3262.03 163.026 3251.89 172.139 3251.89 183.278V780.687V1378.1C3251.89 1389.23 3241.76 1398.35 3229.6 1398.35H3163.72H3097.84C3085.67 1398.35 3075.54 1389.23 3075.54 1378.1V701.707V25.3186C3075.54 14.1804 3085.67 5.0674 3097.84 5.0674H3382.64H3689.74C3820.48 5.0674 3938.05 53.6701 4024.2 130.625Z" fill="url(#paint0_linear)" fill-opacity="0.9"/>
<path d="M4359.65 1384.18C4359.65 1395.32 4367.76 1403.42 4376.88 1403.42H4427.56H4478.23C4487.36 1403.42 4495.46 1394.3 4495.46 1384.18V725.003V65.8273C4495.46 54.6892 4487.36 46.5886 4478.23 46.5886H4427.56H4376.88C4367.76 46.5886 4359.65 55.7017 4359.65 65.8273V725.003V1384.18Z" fill="#EFEFEF"/>
<path d="M5450.2 858.669C5486.69 921.447 5503.92 992.326 5500.88 1062.19C5497.84 1132.06 5475.54 1198.89 5435 1254.58C5407.63 1291.03 5373.17 1322.42 5334.66 1346.72C5302.23 1366.97 5266.75 1382.16 5228.24 1392.29C5216.08 1395.32 5203.91 1386.21 5203.91 1374.06V1319.38V1254.58C5203.91 1246.48 5208.98 1239.39 5216.08 1236.35C5234.32 1229.27 5250.54 1220.15 5266.75 1210.03C5286.01 1196.86 5302.23 1181.67 5315.4 1164.46C5338.71 1133.07 5350.87 1094.59 5351.89 1054.09C5352.9 1013.59 5342.77 972.075 5321.48 935.623C5300.2 900.183 5267.77 871.832 5230.26 846.518C5191.75 822.217 5148.17 800.953 5105.6 780.702L5100.53 778.676L5095.47 776.651C5026.55 744.249 4955.6 705.772 4894.79 656.157C4833.98 606.541 4783.3 545.788 4754.92 467.821C4728.57 393.904 4728.57 317.962 4750.87 249.108C4774.18 180.254 4819.79 119.501 4884.65 76.9731C4960.67 26.3452 5052.9 9.13176 5148.17 22.295C5238.37 35.4583 5332.63 75.9607 5419.79 141.777C5427.9 147.852 5429.93 160.003 5422.83 168.103L5389.39 213.669L5355.94 258.221C5349.86 266.322 5337.7 268.347 5328.58 261.259C5267.77 214.681 5202.9 184.304 5142.09 173.166C5076.21 161.016 5014.38 170.129 4965.73 202.531C4929.25 225.819 4904.92 259.234 4891.75 295.686C4879.59 333.151 4879.59 373.653 4893.77 415.168C4912.02 466.808 4950.53 510.348 4998.17 546.801C5045.8 583.253 5102.56 613.629 5157.29 639.956L5162.36 641.981L5167.43 644.006C5218.1 668.308 5271.82 693.622 5321.48 728.049C5373.17 762.476 5417.77 803.99 5450.2 858.669ZM4779.25 1120.92C4770.12 1113.83 4757.96 1115.86 4751.88 1124.97L4721.48 1170.54L4689.04 1218.13C4682.96 1226.23 4684.99 1238.38 4693.1 1244.45C4741.75 1280.91 4789.38 1311.28 4836 1335.58C4879.59 1357.86 4923.17 1375.07 4966.75 1387.22C4978.91 1390.26 4991.07 1381.15 4991.07 1369V1315.33V1251.54C4991.07 1243.44 4986.01 1236.35 4977.9 1233.32C4945.46 1222.18 4912.02 1206.99 4878.57 1187.75C4846.14 1170.54 4812.69 1147.25 4779.25 1120.92Z" fill="#EFEFEF"/>
<path d="M6002.59 458.693C6002.59 447.555 6011.71 438.442 6022.86 438.442H6084.68H6146.51C6157.66 438.442 6166.78 447.555 6166.78 458.693V944.721V1430.75C6166.78 1441.89 6157.66 1451 6146.51 1451H6083.67H6022.86C6011.71 1451 6002.59 1441.89 6002.59 1430.75V944.721V458.693ZM6537.73 217.705C6548.88 217.705 6558 208.592 6558 197.454V137.713V79.9968C6558 68.8586 6548.88 59.7456 6537.73 59.7456H6083.67H5629.61C5618.46 59.7456 5609.34 68.8586 5609.34 79.9968V139.738V199.479C5609.34 210.617 5618.46 219.73 5629.61 219.73H6083.67H6537.73V217.705Z" fill="#EFEFEF"/>
<defs>
<linearGradient id="paint0_linear" x1="-3.22662" y1="-4147.71" x2="6037.01" y2="-4147.71" gradientUnits="userSpaceOnUse">
<stop stop-color="#FF8C61"/>
<stop offset="1" stop-color="#FFD100"/>
</linearGradient>
</defs>
</svg>
