<svg width="6558" height="1444" viewBox="0 0 6558 1444" fill="none" xmlns="http://www.w3.org/2000/svg">
<path fill-rule="evenodd" clip-rule="evenodd" d="M2492.35 769.348C2481.09 769.348 2471.89 760.356 2471.89 749.365V690.415V631.465C2471.89 620.474 2481.09 611.482 2492.35 611.482H2628.39H2764.44C2775.7 611.482 2784.9 620.474 2784.9 631.465V690.415V749.365C2784.9 760.356 2775.7 769.348 2764.44 769.348H2628.39H2492.35ZM2072.95 1358.85C2072.95 1369.84 2082.15 1378.83 2093.4 1378.83H2493.37H2893.33C2904.58 1378.83 2913.79 1369.84 2913.79 1358.85V1299.9V1240.95C2913.79 1229.96 2904.58 1220.97 2893.33 1220.97H2573.16H2252.98C2241.73 1220.97 2232.52 1211.97 2232.52 1200.98V689.416V177.849C2232.52 166.858 2241.73 157.866 2252.98 157.866H2573.16H2893.33C2904.58 157.866 2913.79 148.874 2913.79 137.883V78.933V19.9831C2913.79 8.99238 2904.58 0 2893.33 0H2493.37H2093.4C2082.15 0 2072.95 8.99238 2072.95 19.9831V687.417V1358.85ZM1448.95 754.366C1448.95 765.357 1458.15 774.35 1469.4 774.35H1605.45H1741.5C1752.75 774.35 1761.96 765.357 1761.96 754.366V695.416V636.466C1761.96 625.475 1752.75 616.483 1741.5 616.483H1605.45H1469.4C1458.15 616.483 1448.95 625.475 1448.95 636.466V695.416V754.366ZM1070.46 1383.83C1059.21 1383.83 1050 1374.84 1050 1363.85V696.415V28.9809C1050 17.9902 1059.21 8.99782 1070.46 8.99782H1470.43H1870.39C1881.64 8.99782 1890.85 17.9902 1890.85 28.9809V83.9343V142.884C1890.85 153.875 1881.64 162.867 1870.39 162.867H1550.22H1230.04C1218.79 162.867 1209.58 171.86 1209.58 182.85V694.417V1205.98C1209.58 1216.97 1218.79 1225.97 1230.04 1225.97H1550.22H1870.39C1881.64 1225.97 1890.85 1234.96 1890.85 1245.95V1304.9V1363.85C1890.85 1374.84 1881.64 1383.83 1870.39 1383.83H1470.43H1070.46ZM823.955 1044.13C827.023 975.185 809.634 905.244 772.808 843.296C740.075 788.343 695.066 747.377 642.897 713.406C594.712 680.748 542.745 656.401 493.358 633.263L490.913 632.117C489.744 631.57 488.578 631.023 487.412 630.477L482.298 628.478L477.183 626.48C421.945 600.502 364.661 570.527 316.584 534.558C268.506 498.588 229.635 455.625 211.223 404.668C196.902 363.702 196.902 323.736 209.177 286.768C222.475 250.798 247.025 217.826 283.85 194.845C332.951 162.873 395.349 153.88 461.839 165.87C523.215 176.861 588.682 206.835 650.057 252.796C659.264 259.79 671.539 257.792 677.676 249.799L711.433 205.836L745.189 160.874C752.35 152.881 750.304 140.891 742.121 134.896C654.149 69.9512 559.017 29.985 467.977 16.9961C371.822 4.00706 278.736 20.9926 202.016 70.9503C136.549 112.915 90.5173 172.864 66.99 240.806C44.4857 308.749 44.4857 383.685 71.0817 456.624C99.7236 533.558 150.87 593.508 212.245 642.466C273.621 691.425 345.226 729.392 414.785 761.365L419.899 763.364L425.014 765.362C467.977 785.345 511.963 806.328 550.834 830.307C588.682 855.286 621.416 883.262 642.897 918.233C664.378 954.202 674.608 995.168 673.585 1035.13C672.562 1075.1 660.287 1113.07 636.759 1144.04C623.461 1161.03 607.095 1176.01 587.659 1189C571.292 1198.99 554.925 1207.99 536.513 1214.98C529.352 1217.98 524.238 1224.97 524.238 1232.97V1297.91V1351.87C524.238 1363.86 536.513 1372.85 548.788 1369.85C587.659 1359.86 623.461 1344.87 656.195 1324.89C695.066 1300.91 729.846 1269.93 757.465 1233.97C798.382 1179.01 820.886 1113.07 823.955 1044.13ZM66.99 1105.07C73.1276 1096.08 85.4027 1094.08 94.609 1101.08C129.388 1127.06 163.145 1150.04 194.856 1167.02C228.612 1186.01 262.369 1200.99 295.102 1211.98C303.286 1214.98 308.4 1221.98 308.4 1229.97V1292.92V1345.87C308.4 1357.86 296.125 1366.85 283.85 1363.86C239.864 1351.87 195.879 1334.88 151.893 1312.9C104.838 1288.92 56.7608 1258.94 7.66034 1222.97C-0.52306 1216.98 -2.56891 1204.99 3.56865 1197L36.3022 1150.04L66.99 1105.07ZM4061.52 128.895C4148.47 204.831 4201.66 310.741 4201.66 426.642C4201.66 516.566 4168.93 600.495 4114.71 670.436C4064.59 733.382 3994.01 783.34 3913.2 814.314C3900.92 819.31 3895.81 831.299 3901.95 841.291L4058.45 1101.07L4208.82 1350.86C4217.01 1363.85 4205.75 1379.83 4189.39 1379.83H4125.97H4039.02C4030.83 1379.83 4023.67 1375.84 4019.58 1369.84L3866.14 1115.06L3712.7 860.275C3708.61 854.28 3701.45 850.283 3693.27 850.283H3626.78H3569.5C3557.22 850.283 3546.99 841.291 3546.99 830.3V771.35V712.4C3546.99 701.409 3557.22 692.417 3569.5 692.417H3635.99H3724.98C3807.84 692.417 3883.53 662.443 3937.75 614.483C3991.96 566.524 4025.72 499.58 4025.72 426.642C4025.72 353.704 3991.96 286.761 3937.75 238.802C3883.53 190.842 3807.84 160.868 3724.98 160.868H3504.03H3304.56C3292.28 160.868 3282.05 169.86 3282.05 180.851V770.351V1359.85C3282.05 1370.84 3271.82 1379.83 3259.55 1379.83H3193.06H3126.57C3114.29 1379.83 3104.07 1370.84 3104.07 1359.85V692.417V24.9831C3104.07 13.9924 3114.29 5.00004 3126.57 5.00004H3414.01H3723.96C3855.91 5.00004 3974.57 52.9593 4061.52 128.895Z" fill="url(#paint0_linear)"/>
<path d="M4392.06 1365.06C4392.06 1375.93 4399.24 1383.83 4407.32 1383.83H4452.22H4497.12C4505.2 1383.83 4512.39 1374.94 4512.39 1365.06V722V78.9352C4512.39 68.0692 4505.2 60.1667 4497.12 60.1667H4452.22H4407.32C4399.24 60.1667 4392.06 69.0571 4392.06 78.9352V722V1365.06Z" fill="#121212"/>
<path d="M5482.51 869.506C5520.19 929.948 5537.98 998.19 5534.84 1065.46C5531.7 1132.72 5508.67 1197.06 5466.81 1250.68C5438.55 1285.78 5402.97 1316 5363.2 1339.4C5329.71 1358.89 5293.08 1373.52 5253.31 1383.27C5240.75 1386.19 5228.19 1377.42 5228.19 1365.72V1313.08V1250.68C5228.19 1242.88 5233.43 1236.06 5240.75 1233.14C5259.59 1226.31 5276.34 1217.54 5293.08 1207.79C5312.97 1195.12 5329.71 1180.49 5343.32 1163.92C5367.39 1133.7 5379.95 1096.65 5380.99 1057.66C5382.04 1018.66 5371.57 978.692 5349.6 943.596C5327.62 909.476 5294.13 882.179 5255.4 857.807C5215.63 834.41 5170.63 813.938 5126.67 794.44L5121.44 792.49L5116.21 790.54C5045.04 759.344 4971.78 722.299 4908.99 674.53C4846.19 626.761 4793.86 568.268 4764.56 493.203C4737.35 422.036 4737.35 348.921 4760.37 282.629C4784.44 216.337 4831.54 157.845 4898.52 116.9C4977.01 68.1557 5072.25 51.5828 5170.63 64.2563C5263.78 76.9297 5361.11 115.925 5451.11 179.292C5459.49 185.141 5461.58 196.84 5454.25 204.639L5419.72 248.508L5385.18 291.403C5378.9 299.202 5366.34 301.152 5356.92 294.327C5294.13 249.483 5227.15 220.237 5164.35 209.513C5096.32 197.815 5032.48 206.589 4982.25 237.785C4944.57 260.207 4919.45 292.378 4905.85 327.473C4893.29 363.544 4893.29 402.539 4907.94 442.509C4926.78 492.228 4966.55 534.148 5015.74 569.243C5064.93 604.339 5123.53 633.585 5180.05 658.932L5185.28 660.882L5190.52 662.832C5242.84 686.229 5298.31 710.6 5349.6 743.746C5402.97 776.892 5449.02 816.862 5482.51 869.506ZM4789.68 1122C4780.26 1115.17 4767.7 1117.12 4761.42 1125.9L4730.02 1169.77L4696.53 1215.59C4690.25 1223.39 4692.35 1235.08 4700.72 1240.93C4750.95 1276.03 4800.14 1305.28 4848.29 1328.67C4893.29 1350.12 4938.29 1366.69 4983.29 1378.39C4995.85 1381.32 5008.41 1372.54 5008.41 1360.84V1309.18V1247.76C5008.41 1239.96 5003.18 1233.14 4994.81 1230.21C4961.32 1219.49 4926.78 1204.86 4892.24 1186.34C4858.75 1169.77 4824.21 1147.35 4789.68 1122Z" fill="#121212"/>
<path d="M5994.4 456.986C5994.4 445.908 6003.66 436.843 6014.97 436.843H6077.71H6140.44C6151.76 436.843 6161.01 445.908 6161.01 456.986V940.422V1423.86C6161.01 1434.94 6151.76 1444 6140.44 1444H6076.68H6014.97C6003.66 1444 5994.4 1434.94 5994.4 1423.86V940.422V456.986ZM6537.43 217.283C6548.74 217.283 6558 208.219 6558 197.14V137.718V80.3098C6558 69.2311 6548.74 60.1667 6537.43 60.1667H6076.68H5615.93C5604.61 60.1667 5595.36 69.2311 5595.36 80.3098V139.732V199.154C5595.36 210.233 5604.61 219.297 5615.93 219.297H6076.68H6537.43V217.283Z" fill="#121212"/>
<defs>
<linearGradient id="paint0_linear" x1="4565.82" y1="691.964" x2="-311.792" y2="547.616" gradientUnits="userSpaceOnUse">
<stop stop-color="#1C175B"/>
<stop offset="0.296875" stop-color="#352C9C"/>
<stop offset="0.557292" stop-color="#502691"/>
<stop offset="0.734375" stop-color="#592B9E"/>
<stop offset="1" stop-color="#90189C"/>
</linearGradient>
</defs>
</svg>
